<mxfile host="app.diagrams.net" modified="2024-03-19T02:03:36.221Z" agent="Mozilla/5.0 (Macintosh; Intel Mac OS X 10_15_7) AppleWebKit/537.36 (KHTML, like Gecko) Chrome/122.0.0.0 Safari/537.36" etag="qHW3FVQsu1GaA7F9hYay" version="24.0.7" type="github" pages="2">
  <diagram name="Page-1" id="2c4490ee-f0b8-94ab-5012-d5dc3445f7a3">
    <mxGraphModel dx="1158" dy="615" grid="0" gridSize="10" guides="1" tooltips="1" connect="0" arrows="1" fold="1" page="1" pageScale="1.5" pageWidth="1169" pageHeight="826" background="none" math="0" shadow="0">
      <root>
        <mxCell id="0" style=";html=1;" />
        <mxCell id="1" style=";html=1;" parent="0" />
        <mxCell id="qAXziv6Ay-DuXSqECI9m-1" value="" style="rounded=0;whiteSpace=wrap;html=1;" vertex="1" parent="1">
          <mxGeometry x="231.5" y="222" width="311" height="666" as="geometry" />
        </mxCell>
        <mxCell id="qAXziv6Ay-DuXSqECI9m-5" value="" style="rounded=1;whiteSpace=wrap;html=1;" vertex="1" parent="1">
          <mxGeometry x="246" y="274" width="282" height="121" as="geometry" />
        </mxCell>
        <mxCell id="qAXziv6Ay-DuXSqECI9m-3" value="" style="endArrow=none;html=1;rounded=0;" edge="1" parent="1">
          <mxGeometry width="50" height="50" relative="1" as="geometry">
            <mxPoint x="301" y="352" as="sourcePoint" />
            <mxPoint x="489" y="352" as="targetPoint" />
          </mxGeometry>
        </mxCell>
        <mxCell id="qAXziv6Ay-DuXSqECI9m-4" value="市场行情" style="text;html=1;align=center;verticalAlign=middle;whiteSpace=wrap;rounded=0;" vertex="1" parent="1">
          <mxGeometry x="253" y="279" width="60" height="30" as="geometry" />
        </mxCell>
        <mxCell id="qAXziv6Ay-DuXSqECI9m-6" value="8.3" style="text;html=1;align=center;verticalAlign=middle;whiteSpace=wrap;rounded=0;" vertex="1" parent="1">
          <mxGeometry x="287" y="354" width="60" height="30" as="geometry" />
        </mxCell>
        <mxCell id="qAXziv6Ay-DuXSqECI9m-7" value="9.6" style="text;html=1;align=center;verticalAlign=middle;whiteSpace=wrap;rounded=0;" vertex="1" parent="1">
          <mxGeometry x="438" y="354" width="60" height="30" as="geometry" />
        </mxCell>
        <mxCell id="qAXziv6Ay-DuXSqECI9m-8" value="" style="endArrow=none;html=1;rounded=0;" edge="1" parent="1">
          <mxGeometry width="50" height="50" relative="1" as="geometry">
            <mxPoint x="467.5" y="364" as="sourcePoint" />
            <mxPoint x="467.5" y="326" as="targetPoint" />
          </mxGeometry>
        </mxCell>
        <mxCell id="qAXziv6Ay-DuXSqECI9m-11" value="" style="endArrow=none;html=1;rounded=0;" edge="1" parent="1">
          <mxGeometry width="50" height="50" relative="1" as="geometry">
            <mxPoint x="316.5" y="368" as="sourcePoint" />
            <mxPoint x="316.5" y="330" as="targetPoint" />
          </mxGeometry>
        </mxCell>
        <mxCell id="qAXziv6Ay-DuXSqECI9m-12" value="" style="endArrow=classic;html=1;rounded=0;" edge="1" parent="1">
          <mxGeometry width="50" height="50" relative="1" as="geometry">
            <mxPoint x="415" y="350" as="sourcePoint" />
            <mxPoint x="415" y="379" as="targetPoint" />
          </mxGeometry>
        </mxCell>
        <mxCell id="qAXziv6Ay-DuXSqECI9m-13" value="市场价 9.1" style="text;html=1;align=center;verticalAlign=middle;whiteSpace=wrap;rounded=0;" vertex="1" parent="1">
          <mxGeometry x="386" y="368" width="60" height="30" as="geometry" />
        </mxCell>
        <mxCell id="qAXziv6Ay-DuXSqECI9m-14" value="本车 8.9" style="text;html=1;align=center;verticalAlign=middle;whiteSpace=wrap;rounded=0;" vertex="1" parent="1">
          <mxGeometry x="329" y="302" width="60" height="30" as="geometry" />
        </mxCell>
        <mxCell id="qAXziv6Ay-DuXSqECI9m-15" value="" style="endArrow=classic;html=1;rounded=0;" edge="1" parent="1">
          <mxGeometry width="50" height="50" relative="1" as="geometry">
            <mxPoint x="359" y="350" as="sourcePoint" />
            <mxPoint x="358.5" y="329" as="targetPoint" />
          </mxGeometry>
        </mxCell>
        <mxCell id="qAXziv6Ay-DuXSqECI9m-17" value="&lt;span style=&quot;font-size: 14px; text-align: left;&quot;&gt;调价助手&lt;/span&gt;" style="swimlane;fontStyle=0;childLayout=stackLayout;horizontal=1;startSize=30;horizontalStack=0;resizeParent=1;resizeParentMax=0;resizeLast=0;collapsible=1;marginBottom=0;whiteSpace=wrap;html=1;" vertex="1" parent="1">
          <mxGeometry x="49" y="37" width="518" height="90" as="geometry">
            <mxRectangle x="49" y="37" width="91" height="30" as="alternateBounds" />
          </mxGeometry>
        </mxCell>
        <mxCell id="qAXziv6Ay-DuXSqECI9m-18" value="&lt;span style=&quot;font-size: 14px;&quot;&gt;用户： 店长&lt;/span&gt;" style="text;strokeColor=none;fillColor=none;align=left;verticalAlign=middle;spacingLeft=4;spacingRight=4;overflow=hidden;points=[[0,0.5],[1,0.5]];portConstraint=eastwest;rotatable=0;whiteSpace=wrap;html=1;" vertex="1" parent="qAXziv6Ay-DuXSqECI9m-17">
          <mxGeometry y="30" width="518" height="30" as="geometry" />
        </mxCell>
        <mxCell id="qAXziv6Ay-DuXSqECI9m-19" value="&lt;span style=&quot;font-size: 14px;&quot;&gt;作用：辅助（半自动）店长对库存车进行调价&lt;/span&gt;" style="text;strokeColor=none;fillColor=none;align=left;verticalAlign=middle;spacingLeft=4;spacingRight=4;overflow=hidden;points=[[0,0.5],[1,0.5]];portConstraint=eastwest;rotatable=0;whiteSpace=wrap;html=1;" vertex="1" parent="qAXziv6Ay-DuXSqECI9m-17">
          <mxGeometry y="60" width="518" height="30" as="geometry" />
        </mxCell>
      </root>
    </mxGraphModel>
  </diagram>
  <diagram id="RfeyqDkDFPOXAXIqaQ34" name="Page-2">
    <mxGraphModel dx="1158" dy="581" grid="1" gridSize="10" guides="1" tooltips="1" connect="1" arrows="1" fold="1" page="1" pageScale="1" pageWidth="827" pageHeight="1169" math="0" shadow="0">
      <root>
        <mxCell id="0" />
        <mxCell id="1" parent="0" />
      </root>
    </mxGraphModel>
  </diagram>
</mxfile>
